<svg id="Capa_1" enable-background="new 0 0 512 512" height="512" viewBox="0 0 512 512" width="512" xmlns="http://www.w3.org/2000/svg"><g><path d="m351.849 160.871c0-84.569-68.802-153.371-153.371-153.371s-153.37 68.802-153.37 153.371v107.203h306.742v-107.203z" fill="#de5c6e"/><path d="m83.506 130.871c-12.858 0-25.188 2.303-36.601 6.515-1.182 7.658-1.797 15.501-1.797 23.484v107.203h306.742v-107.202c0-7.984-.615-15.826-1.797-23.484-11.413-4.212-23.743-6.515-36.601-6.515h-229.946z" fill="#d5364c"/><circle cx="198.478" cy="160.871" fill="#f5ea72" r="113.841"/><path d="m244.995 174.228 21.684-39.606c3.152-5.757-.923-12.805-7.484-12.947l-34.635-.747-18.56-31.262c-3.389-5.709-11.654-5.709-15.044 0l-18.56 31.262-34.635.747c-6.562.141-10.636 7.19-7.484 12.947l21.685 39.606z" fill="#f3a977"/><path d="m351.849 292.208h-306.741v178.294c0 18.776 15.221 33.998 33.998 33.998h238.746c18.776 0 33.998-15.221 33.998-33.998v-178.294z" fill="#de5c6e"/><path d="m424.568 287.268h-95.446c-13.136 0-23.785-10.649-23.785-23.785s10.649-23.785 23.785-23.785h95.446c4.798 0 8.702-3.904 8.702-8.702v-95.486c0-13.136 10.649-23.785 23.785-23.785s23.785 10.649 23.785 23.785v95.486c-.001 31.029-25.245 56.272-56.272 56.272z" fill="#d4d4ff"/><circle cx="457.054" cy="129.443" fill="#f3a977" r="47.446"/><path d="m45.108 388.896c11.912 4.645 24.862 7.2 38.398 7.2h229.945c13.536 0 26.486-2.554 38.398-7.2v-96.688h-306.741z" fill="#d5364c"/><path d="m83.506 366.095c-41.91 0-76.006-34.095-76.006-76.005v-53.214c0-41.91 34.096-76.005 76.006-76.005h229.946c41.91 0 76.005 34.095 76.005 76.005v53.214c0 41.91-34.095 76.005-76.005 76.005z" fill="#a78cd6"/><path d="m313.451 314.668h-229.945c-13.574 0-24.578-11.004-24.578-24.578v-53.213c0-13.574 11.004-24.578 24.578-24.578h229.945c13.574 0 24.578 11.004 24.578 24.578v53.213c0 13.574-11.004 24.578-24.578 24.578z" fill="#fff"/><path d="m151.962 212.298h93.034v102.37h-93.034z" fill="#d4d4ff"/><g><g><path d="m146.227 448.463c.007 13.438-13.667 24.338-30.541 24.346-16.874.009-30.559-10.878-30.566-24.315-.007-13.438 13.667-24.338 30.541-24.347 16.875-.008 30.559 10.878 30.566 24.316z" fill="#eda1ab"/><path d="m250.729 448.411c.007 13.438 13.692 24.324 30.566 24.315s30.548-10.909 30.541-24.346c-.007-13.438-13.691-24.325-30.566-24.316-16.873.009-30.547 10.909-30.541 24.347z" fill="#eda1ab"/><path d="m228.422 437.422c-.009-18.509-13.419-20.242-29.96-20.233-16.54.008-29.948 1.754-29.939 20.263s13.426 33.506 29.966 33.498c16.541-.008 29.942-15.019 29.933-33.528z" fill="#565e75"/></g></g><path d="m264.177 428.067c4.136 0 7.492-3.349 7.5-7.486l.022-12c.008-4.142-3.344-7.506-7.486-7.514-.005 0-.009 0-.014 0-4.136 0-7.492 3.349-7.5 7.486l-.022 12c-.008 4.142 3.344 7.506 7.486 7.514zm-65.702 50.383h.019c20.406-.01 37.441-18.043 37.429-41.032-.006-11.428-4.343-19.418-12.892-23.747-6.514-3.299-14.489-3.981-24.455-3.981-.039 0-.078 0-.117 0-10.02.005-18.032.688-24.568 4.006-8.544 4.339-12.874 12.333-12.868 23.761.011 22.156 16.303 40.993 37.452 40.993zm-17.793-51.38c4.11-2.087 10.977-2.378 17.784-2.381h.126c6.766 0 13.574.293 17.661 2.363 2.423 1.227 4.666 3.333 4.669 10.373.007 13.869-9.674 26.018-22.437 26.024-.003 0-.007 0-.01 0-12.897 0-22.446-12.296-22.452-26.002-.003-7.039 2.237-9.147 4.659-10.377zm7.526-174.755h9.05l-11.789 26.817c-1.667 3.792.056 8.218 3.848 9.885 3.775 1.659 8.21-.039 9.884-3.848l16.412-37.336c2.176-4.95-1.455-10.519-6.866-10.519h-20.54c-4.142 0-7.5 3.357-7.5 7.5.001 4.144 3.359 7.501 7.501 7.501zm-92.147 0h9.05l-11.789 26.817c-1.667 3.792.056 8.218 3.848 9.885 3.775 1.659 8.21-.039 9.884-3.848l16.412-37.336c2.176-4.95-1.455-10.519-6.866-10.519h-20.54c-4.142 0-7.5 3.357-7.5 7.5.001 4.144 3.359 7.501 7.501 7.501zm217.39-47.516h-229.945c-17.688 0-32.078 14.391-32.078 32.078v53.213c0 17.688 14.39 32.078 32.078 32.078h229.945c17.688 0 32.078-14.391 32.078-32.078v-53.213c0-17.688-14.39-32.078-32.078-32.078zm-168.989 102.369h-60.956c-9.417 0-17.078-7.661-17.078-17.078v-53.213c0-9.417 7.661-17.078 17.078-17.078h60.956zm93.033 0h-78.033v-87.369h78.033zm93.034-17.078c0 9.417-7.661 17.078-17.078 17.078h-60.956v-87.369h60.956c9.417 0 17.078 7.661 17.078 17.078zm126.525-215.594c-30.298 0-54.946 24.648-54.946 54.946 0 18.679 9.376 35.201 23.662 45.134v56.421c0 .651-.551 1.201-1.202 1.201h-27.749c-1.508-27.159-16.055-50.886-37.469-65.033-.531-3.504 4.868-54.515-33.237-104.12-2.522-3.283-7.23-3.903-10.517-1.378-3.284 2.523-3.901 7.231-1.378 10.517 19.396 25.249 29.787 55.346 30.116 87.131-7.747-3.096-16.058-5.059-24.737-5.694-3.763-63.546-56.645-114.092-121.118-114.092s-117.355 50.547-121.119 114.092c-8.677.635-16.987 2.598-24.732 5.692.839-79.717 65.938-144.313 145.85-144.313 33.353 0 65.982 11.597 91.879 32.655 3.213 2.613 7.938 2.126 10.551-1.088s2.126-7.938-1.088-10.551c-28.562-23.225-64.552-36.016-101.342-36.016-88.704 0-160.87 72.166-160.87 160.871v6.294c-22.636 14.953-37.608 40.611-37.608 69.711v53.214c0 29.1 14.972 54.758 37.608 69.712v110.701c0 19.476 13.244 36.111 32.207 40.452 4.046.926 8.062-1.605 8.985-5.637.924-4.038-1.6-8.061-5.637-8.984-12.102-2.771-20.554-13.393-20.554-25.831v-102.858c9.564 3.824 19.985 5.95 30.898 5.95h229.945c10.913 0 21.334-2.126 30.898-5.951v102.857c0 14.611-11.887 26.498-26.498 26.498h-211.097c-4.142 0-7.5 3.357-7.5 7.5s3.358 7.5 7.5 7.5h211.096c22.882 0 41.498-18.616 41.498-41.498v-110.7c21.414-14.146 35.961-37.874 37.469-65.032h27.749c35.164 0 63.771-28.607 63.771-63.771v-56.422c14.286-9.933 23.662-26.455 23.662-45.134 0-30.297-24.648-54.946-54.946-54.946zm-258.576-19.967c56.115 0 102.211 43.692 106.073 98.842h-39.586l8.293-15.146c5.86-10.701-1.723-23.786-13.901-24.048l-30.472-.656-16.435-27.683c-2.956-4.98-8.179-7.953-13.971-7.954-.1.027-9.026-.375-13.972 7.953l-16.434 27.684-30.473.656c-12.2.262-19.75 13.364-13.901 24.047l8.293 15.147h-39.587c3.862-55.15 49.959-98.842 106.073-98.842zm61.624 76.491-12.237 22.351h-98.771l-12.237-22.351c-.453-.829.122-1.828 1.067-1.848l34.635-.746c2.589-.056 4.966-1.442 6.288-3.669l18.56-31.263c.489-.823 1.658-.823 2.146 0l18.56 31.263c1.322 2.227 3.699 3.613 6.288 3.669l34.634.746c.939.021 1.522 1.015 1.067 1.848zm121.855 159.07c0 37.774-30.731 68.506-68.506 68.506h-229.945c-37.775 0-68.506-30.732-68.506-68.506v-53.214c0-37.774 30.731-68.505 68.506-68.505h229.945c37.774 0 68.506 30.731 68.506 68.505zm91.382-59.093c0 26.892-21.879 48.771-48.771 48.771h-27.61v-32.57h27.61c8.934 0 16.202-7.268 16.202-16.201v-49.072c5.148 1.601 10.617 2.464 16.284 2.464 5.668 0 11.137-.863 16.285-2.464zm-16.285-61.608c-22.026 0-39.946-17.92-39.946-39.946s17.92-39.946 39.946-39.946 39.946 17.919 39.946 39.945-17.92 39.947-39.946 39.947zm-156.159 67.926h-20.539c-4.143 0-7.5 3.357-7.5 7.5s3.357 7.5 7.5 7.5h9.05l-11.789 26.817c-1.667 3.792.057 8.218 3.848 9.885 3.777 1.659 8.211-.04 9.885-3.848l16.412-37.336c2.174-4.948-1.456-10.518-6.867-10.518zm-176.418 189.592c4.134 0 7.49-3.348 7.499-7.483.008-3.608 2.928-6.548 6.563-6.548h.015c3.634.008 6.556 2.955 6.548 6.576-.009 4.143 3.341 7.508 7.483 7.517h.017c4.134 0 7.49-3.348 7.5-7.483.026-11.917-9.596-21.583-21.515-21.609-.017 0-.034 0-.05 0-11.854 0-21.534 9.574-21.561 21.515-.009 4.143 3.341 7.508 7.483 7.517.007-.002.012-.002.018-.002z"/></g></svg>